# WaveFront *.obj file (generated by Autodesk ATF)

mtllib noctuyo 15 v1.mtl

g arrow

v 216.032569 -59.571287 221.799117
v 216.032569 -59.571287 258.200878
v 230.156729 -39.399897 221.799117
v 230.156729 -39.399897 258.200878
v 244.280888 -19.228507 221.799117
v 244.280888 -19.228507 258.200878
v 228.127031 -128.162385 221.799117
v 228.127031 -128.162385 258.200878
v 270.499509 -67.648215 221.799117
v 270.499509 -67.648215 258.200878
v 296.718129 -116.067924 221.799117
v 296.718129 -116.067924 258.200878
v 324.966448 -75.725144 221.799117
v 324.966448 -75.725144 258.200878
usemtl Stal_—_satynowa
f 5 3 4
f 5 4 6
f 3 1 2
f 3 2 4
f 1 7 8
f 1 8 2
f 7 11 12
f 7 12 8
f 11 13 14
f 11 14 12
f 13 9 10
f 13 10 14
f 9 5 6
f 9 6 10
f 9 1 3
f 9 3 5
f 9 11 7
f 11 9 13
f 1 9 7
f 10 4 2
f 10 6 4
f 10 8 12
f 12 14 10
f 2 8 10
g 15_2wersja

v -237.503183 54.472128 222.890938
v -237.503183 54.472128 184.661772
v -232.221567 75.162436 220.665101
v -232.221567 84.138755 174.598692
v -226.940073 113.805503 222.890938
v -226.940073 113.805503 184.661772
v -211.902109 54.472128 174.258024
v -207.608530 54.472128 221.528916
v -197.514169 90.527915 222.890938
v -197.514169 90.527915 184.661772
v -193.110360 113.805503 219.345856
v -186.009286 113.805503 174.661772
v -180.417245 -46.984782 236.225789
v -180.417245 24.682455 233.154298
v -180.417245 -111.772625 232.521981
v -180.417245 -20.842082 222.890938
v -180.417245 54.472128 222.890938
v -180.417245 -212.078535 220.518612
v -180.417245 -170.914106 211.310080
v -180.417245 -62.309368 197.996622
v -180.417245 24.682455 194.925135
v -180.417245 -212.078535 194.277865
v -180.417245 -99.767376 184.661772
v -180.417245 -20.842082 184.661772
v -180.417245 54.472128 184.661772
v -180.417245 -170.914106 173.080915
v -159.424809 22.899862 184.661772
v -157.946172 113.805503 232.890939
v -154.413823 -46.907146 213.776501
v -154.413823 -46.907146 175.547338
v -153.587529 29.336264 230.011491
v -153.206181 89.750571 222.890938
v -153.206181 89.750571 184.661772
v -152.261723 -212.078535 243.169702
v -151.779179 62.164877 214.363232
v -150.591313 -133.091107 222.890938
v -150.591313 -133.091107 184.661772
v -144.232914 -212.078535 184.661772
v -142.710942 113.805503 194.661772
v -140.591435 -181.577192 232.035817
v -140.591435 -20.889933 222.890938
v -140.591435 -181.577192 193.806650
v -140.591435 -20.889933 184.661772
v -135.004033 -86.377361 222.890938
v -135.004033 -86.377361 184.661772
v -130.922612 48.551962 176.134069
v -108.048588 30.498495 234.661534
v -108.048588 -97.062908 234.002473
v -108.048588 -9.784098 231.137383
v -108.048588 -158.912518 222.890938
v -108.048588 100.503745 222.890938
v -108.048588 113.805503 222.890938
v -108.048588 70.816001 221.703900
v -108.048588 -49.136516 220.286503
v -108.048588 -135.370770 216.189580
v -108.048588 -212.078535 204.973185
v -108.048588 -97.062908 195.773306
v -108.048588 59.873007 194.012816
v -108.048588 -9.784098 192.908217
v -108.048588 -212.078535 192.019579
v -108.048588 -176.838056 184.661772
v -108.048588 100.503745 184.661772
v -108.048588 113.805503 184.661772
v -108.048588 -49.136516 182.057333
v -108.048588 -135.370770 177.960417
v -108.048588 30.498495 177.094160
v -81.803470 -186.120038 230.758363
v -81.803470 -186.120038 190.535261
v -64.273196 -156.678021 230.758363
v -64.273196 -156.678021 190.535261
v -49.733768 -178.774945 236.242326
v -49.733768 -178.774945 196.019224
v -46.742801 -127.236126 230.758363
v -46.742801 -127.236126 190.535261
v -43.247321 -209.963056 230.758363
v -43.247321 -209.963056 190.535261
v -43.146857 -3.804972 230.758363
v -43.146857 51.761069 230.758363
v -43.146857 111.221031 230.758363
v -43.146857 26.977011 225.847916
v -43.146857 -54.831462 224.768677
v -43.146857 -26.849284 190.535261
v -43.146857 73.680625 190.535261
v -43.146857 111.221031 190.535261
v -43.146857 26.977011 185.624815
v -43.146857 -60.486125 173.840917
v -28.614753 -42.651652 230.758363
v -28.614753 -35.041301 190.535261
v -24.104865 85.797934 225.793732
v -24.104865 74.502890 198.252150
v -23.374884 -141.072064 230.758363
v -23.374884 -141.072064 190.535261
v -19.918341 46.888876 190.535261
v -16.133795 15.914511 230.758363
v -16.133795 15.914511 190.535261
v -14.782599 43.581869 230.758363
v -11.376837 -4.858927 239.777890
v -11.376837 -4.858927 199.554785
v -10.393195 -169.764569 230.758363
v -10.393195 -169.764569 190.535261
v 0.290765 -21.010417 230.758363
v 0.290765 -21.010417 190.535261
v 2.077265 -197.326826 230.758363
v 2.077265 -197.326826 190.535261
v 9.628778 72.217002 230.758363
v 9.628778 72.217002 190.535261
v 11.242060 -51.720989 224.945965
v 11.242060 -51.720989 184.722860
v 12.126703 111.221031 238.424958
v 12.126703 111.221031 198.201857
v 14.645624 -225.105635 234.712872
v 14.645624 -225.105635 194.489771
v 16.070551 48.690390 230.758363
v 17.310175 2.218465 230.758363
v 17.310175 24.757528 223.849614
v 17.310175 24.757528 198.427344
v 17.310175 2.218465 190.535261
v 17.310175 45.370077 190.535261
v 18.354006 -178.032270 230.758363
v 18.354006 -178.032270 190.535261
v 20.197634 -154.629804 238.787217
v 20.197634 -154.629804 198.564116
v 28.954470 88.783286 230.758363
v 28.954470 88.783286 190.535261
v 34.020388 -187.056074 230.758363
v 34.020388 -187.056074 190.535261
v 43.405154 -15.215007 230.758363
v 43.405154 -15.215007 190.535261
v 48.727175 111.221031 230.758363
v 57.720461 3.097860 226.060006
v 57.720461 3.097860 185.836905
v 60.744387 -38.124553 230.758363
v 60.744387 -38.124553 190.535261
v 61.513430 45.370077 190.535261
v 62.821536 -66.441936 230.758363
v 62.821536 -66.441936 190.535261
v 65.636721 111.221031 190.535261
v 66.529910 -141.058148 236.031045
v 66.529910 -141.058148 195.807940
v 68.471560 -169.207318 230.758363
v 68.471560 -169.207318 190.535261
v 70.540652 -199.206708 225.965020
v 70.540652 -199.206708 185.741919
v 71.976687 -220.025556 230.758363
v 71.976687 -220.025556 190.535261
v 72.084109 45.370077 230.297539
v 73.561648 78.719931 226.699578
v 73.561648 78.719931 186.476477
v 75.070681 -10.958537 230.758363
v 75.070681 -10.958537 190.535261
v 81.923831 -109.297283 230.758363
v 81.923831 -109.297283 190.535261
v 82.041629 96.771201 241.864747
v 82.041629 96.771201 201.641646
v 82.787356 -57.234660 236.556672
v 82.787356 -57.234660 196.333571
v 89.838870 -151.755780 230.758363
v 89.838870 -151.755780 190.535261
v 96.344608 -8.098918 230.758363
v 96.344608 -8.098918 190.535261
v 98.401248 45.370077 190.535261
v 103.202762 -101.089764 230.758363
v 103.202762 -101.089764 190.535261
v 107.452640 45.370077 214.964947
v 107.922489 111.221031 220.470135
v 108.643192 -126.776654 240.556336
v 108.643192 -126.776654 200.333235
v 110.173587 -44.605388 230.758363
v 110.173587 -44.605388 190.535261
v 114.991947 80.508750 230.758363
v 114.991947 80.508750 190.535261
v 123.721439 -152.493207 230.758363
v 123.721439 -152.493207 190.535261
v 123.942508 111.221031 190.535261
v 127.661258 45.370077 230.758363
v 127.661258 45.370077 190.535261
v 129.567997 -183.329999 230.758363
v 129.567997 -183.329999 190.535261
v 130.496464 -35.233439 230.758363
v 130.496464 -35.233439 190.535261
v 133.924686 -123.571209 230.758363
v 133.924686 -123.571209 190.535261
v 134.040287 -89.195232 230.758363
v 134.040287 -89.195232 190.535261
v 138.020267 90.810019 224.450043
v 138.020267 81.503013 195.045023
v 146.540043 111.221031 230.758363
v 146.540043 111.221031 190.535261
v 153.034672 -81.868938 240.823632
v 153.034672 -81.868938 200.600527
v 153.753910 -132.391644 226.324521
v 153.753910 -132.391644 186.101416
f 124 98 93
f 93 98 97
f 97 92 93
f 99 94 92
f 97 99 92
f 91 94 96
f 94 99 96
f 95 96 100
f 91 96 95
f 122 95 100
f 95 122 121
f 121 150 149
f 121 122 150
f 149 166 165
f 149 150 166
f 83 88 84
f 81 84 82
f 81 83 84
f 83 87 88
f 88 87 106
f 87 105 106
f 105 135 106
f 135 136 106
f 136 152 153
f 136 135 152
f 165 153 152
f 153 165 166
f 93 123 124
f 179 201 202
f 202 188 179
f 179 188 151
f 151 143 179
f 143 151 124
f 143 124 123
f 201 200 202
f 189 190 200
f 189 200 199
f 200 201 199
f 81 82 89
f 82 90 89
f 89 126 125
f 89 90 126
f 126 159 158
f 126 158 125
f 158 192 191
f 158 159 192
f 191 206 205
f 191 192 206
f 204 203 205
f 204 205 206
f 203 194 193
f 203 204 194
f 194 174 193
f 193 174 173
f 174 145 144
f 144 173 174
f 144 131 128
f 144 145 131
f 178 190 189
f 190 178 175
f 175 178 160
f 148 175 160
f 160 127 148
f 127 132 148
f 127 129 132
f 132 129 130
f 130 129 131
f 129 128 131
f 160 119 127
f 127 110 108
f 119 110 127
f 108 129 127
f 137 160 161
f 160 137 119
f 184 189 199
f 161 167 143
f 161 143 137
f 123 137 143
f 103 92 110
f 103 93 92
f 119 103 110
f 123 103 119
f 103 123 93
f 92 94 110
f 110 94 108
f 108 128 129
f 91 95 101
f 91 101 115
f 94 91 108
f 111 91 115
f 108 91 111
f 101 95 121
f 101 121 115
f 144 146 163
f 173 144 163
f 141 146 144
f 141 144 128
f 195 205 203
f 203 197 195
f 193 197 203
f 184 167 161
f 123 119 137
f 128 108 111
f 111 115 128
f 146 121 149
f 141 121 146
f 115 121 141
f 169 165 182
f 149 165 169
f 173 169 182
f 163 169 173
f 146 169 163
f 146 149 169
f 186 191 205
f 195 186 205
f 180 171 186
f 195 180 186
f 176 171 180
f 197 176 180
f 197 180 195
f 154 152 135
f 171 152 154
f 165 152 171
f 156 125 158
f 156 139 125
f 156 154 139
f 171 154 156
f 191 171 156
f 156 158 191
f 139 117 125
f 117 89 125
f 85 89 113
f 81 89 85
f 85 113 105
f 83 85 105
f 83 81 85
f 135 113 133
f 113 135 105
f 139 154 135
f 139 135 133
f 89 117 113
f 133 113 117
f 139 133 117
f 83 105 87
f 186 171 191
f 176 165 171
f 182 176 197
f 182 197 193
f 182 165 176
f 182 193 173
f 115 141 128
f 161 160 178
f 184 178 189
f 184 199 179
f 167 179 143
f 179 167 184
f 184 161 178
f 179 199 201
f 185 190 175
f 148 132 120
f 148 120 138
f 116 131 142
f 183 174 194
f 183 177 166
f 183 194 198
f 183 198 177
f 177 172 166
f 187 192 172
f 140 136 155
f 157 192 159
f 192 157 172
f 172 157 155
f 157 140 155
f 157 126 140
f 157 159 126
f 166 172 153
f 172 155 153
f 155 136 153
f 198 196 181
f 198 181 177
f 177 181 172
f 196 187 181
f 181 187 172
f 196 206 187
f 187 206 192
f 147 170 150
f 147 164 170
f 164 174 170
f 174 183 170
f 150 170 166
f 170 183 166
f 102 116 122
f 116 142 122
f 142 147 122
f 147 150 122
f 97 107 99
f 107 109 99
f 99 109 96
f 124 151 138
f 138 162 148
f 185 175 162
f 162 175 148
f 162 138 151
f 188 185 168
f 168 151 188
f 162 151 168
f 185 162 168
f 188 202 200
f 185 200 190
f 185 188 200
f 194 204 198
f 204 196 198
f 196 204 206
f 142 131 145
f 142 145 147
f 174 164 145
f 145 164 147
f 96 102 100
f 102 122 100
f 120 132 107
f 132 109 107
f 96 116 102
f 84 88 106
f 140 118 134
f 134 118 114
f 90 114 118
f 140 134 136
f 114 106 136
f 136 134 114
f 84 86 82
f 84 106 86
f 86 106 114
f 82 86 90
f 86 114 90
f 118 126 90
f 140 126 118
f 112 131 116
f 131 112 109
f 109 112 96
f 112 116 96
f 109 132 130
f 109 130 131
f 104 97 98
f 104 107 97
f 120 107 104
f 124 138 120
f 104 98 124
f 124 120 104
f 75 74 52
f 79 75 56
f 56 51 79
f 71 79 51
f 51 56 40
f 56 52 40
f 75 52 56
f 40 52 36
f 37 51 40
f 44 34 38
f 44 37 34
f 38 57 44
f 57 59 44
f 37 44 59
f 78 71 59
f 73 78 57
f 57 78 59
f 71 51 59
f 80 73 41
f 41 73 57
f 80 60 72
f 47 72 60
f 41 60 80
f 41 39 60
f 47 60 39
f 76 72 47
f 41 35 39
f 35 41 38
f 16 18 21
f 24 21 18
f 39 21 24
f 20 24 18
f 53 47 26
f 77 76 53
f 53 76 47
f 26 24 20
f 26 47 39
f 26 39 24
f 41 57 38
f 51 37 59
f 33 32 48
f 64 48 70
f 64 54 48
f 54 33 48
f 69 54 64
f 43 27 29
f 29 33 50
f 29 58 43
f 50 58 29
f 43 30 27
f 45 61 49
f 45 49 31
f 61 45 63
f 45 55 63
f 45 31 28
f 28 30 45
f 45 30 55
f 61 67 49
f 46 49 67
f 46 31 49
f 65 46 67
f 42 25 46
f 66 42 65
f 42 46 65
f 15 22 17
f 23 17 22
f 19 17 23
f 31 23 22
f 25 19 23
f 25 31 46
f 25 23 31
f 54 69 50
f 62 50 69
f 50 33 54
f 30 43 55
f 55 43 58
f 68 58 62
f 63 55 68
f 55 58 68
f 62 58 50
f 25 26 20
f 18 19 20
f 17 16 15
f 18 17 19
f 17 18 16
f 25 20 19
f 25 42 26
f 42 53 26
f 53 66 77
f 66 53 42
f 66 76 77
f 67 72 76
f 67 80 72
f 80 67 61
f 68 78 73
f 68 73 63
f 63 73 61
f 61 73 80
f 69 71 62
f 69 79 71
f 68 62 71
f 68 71 78
f 75 70 74
f 75 64 70
f 64 79 69
f 64 75 79
f 74 70 52
f 70 48 52
f 48 32 52
f 52 32 36
f 32 33 36
f 36 33 40
f 33 29 37
f 33 37 40
f 37 29 34
f 29 27 34
f 27 30 34
f 34 30 38
f 30 28 35
f 35 38 30
f 35 28 31
f 31 39 35
f 22 16 31
f 39 31 21
f 31 16 21
f 15 16 22
f 65 76 66
f 65 67 76
# 206 vertices
# 0 texture params
# 0 normals
# 400 facets

# 2 groups
